# xmcd CD database file
#
# Track frame offsets:
#	150
#	19398
#	37961
#	62692
#	90728
#	109517
#	129207
#	152726
#	178495
#	195934
#	218779
#	234729
#	261021
#
# Disc length: 3816 seconds
#
# Revision: 0
# Processed by: cddbd v1.5.1PL0 Copyright (c) Steve Scherf et al.
# Submitted via: CDex 1.51
#
DISCID=ab0ee60d
DTITLE=Bodo Andriamanantena - Ndao andihy
DYEAR=2001
DGENRE=Blues
TTITLE0=Ndao andihy
TTITLE1=Anjelinao
TTITLE2=Hiran'i Neny
TTITLE3=Hafatra
TTITLE4=Tia sy Tiana
TTITLE5=Avelao hifaly
TTITLE6=Valim-pitia
TTITLE7=Ampy izay
TTITLE8=Tsy izany
TTITLE9=Tia anao
TTITLE10=Veloma
TTITLE11=Hiverina
TTITLE12=Valimbabena
EXTD=YEAR: 2001
EXTT0=
EXTT1=
EXTT2=
EXTT3=
EXTT4=
EXTT5=
EXTT6=
EXTT7=
EXTT8=
EXTT9=
EXTT10=
EXTT11=
EXTT12=
PLAYORDER=
